# Blender 3.3.0
# www.blender.org
mtllib Wheel2.mtl
o Wheel
v 0.173724 0.000000 -0.259293
v 0.173724 0.099227 -0.239556
v 0.173724 0.183348 -0.183348
v 0.173724 0.239556 -0.099227
v 0.173724 0.259293 0.000000
v 0.173724 0.239556 0.099227
v 0.173724 0.183348 0.183348
v 0.173724 0.099227 0.239556
v 0.173724 -0.000000 0.259293
v 0.173724 -0.099227 0.239556
v 0.173724 -0.183348 0.183348
v 0.173724 -0.239556 0.099227
v 0.173724 -0.259293 -0.000000
v 0.173724 -0.239556 -0.099227
v 0.173724 -0.183348 -0.183348
v 0.173724 -0.099227 -0.239556
v 0.134178 0.185464 -0.447749
v 0.134178 0.000000 -0.484640
v 0.134178 0.342693 -0.342692
v 0.134178 0.447749 -0.185464
v 0.134178 0.484640 0.000000
v 0.134179 0.447749 0.185464
v 0.134179 0.342692 0.342693
v 0.134179 0.185464 0.447749
v 0.134179 -0.000000 0.484640
v 0.134179 -0.185464 0.447749
v 0.134179 -0.342693 0.342692
v 0.134178 -0.447749 0.185464
v 0.134178 -0.484640 -0.000000
v 0.134178 -0.447749 -0.185464
v 0.134178 -0.342692 -0.342692
v 0.134178 -0.185464 -0.447749
v 0.000000 0.185464 -0.447749
v 0.000000 0.000000 -0.484640
v 0.000000 0.342693 -0.342692
v 0.000000 0.447749 -0.185464
v 0.000000 0.484640 0.000000
v 0.000000 0.447749 0.185464
v 0.000000 0.342692 0.342693
v 0.000000 0.185464 0.447749
v 0.000000 -0.000000 0.484640
v 0.000000 -0.185464 0.447749
v 0.000000 -0.342693 0.342692
v 0.000000 -0.447749 0.185464
v 0.000000 -0.484640 -0.000000
v 0.000000 -0.447749 -0.185464
v 0.000000 -0.342692 -0.342692
v 0.000000 -0.185464 -0.447749
v 0.173724 0.175498 -0.423688
v 0.173724 0.000000 -0.458597
v 0.173724 0.324277 -0.324277
v 0.173724 0.423689 -0.175497
v 0.173724 0.458597 0.000000
v 0.173724 0.423688 0.175498
v 0.173724 0.324277 0.324277
v 0.173724 0.175497 0.423689
v 0.173724 -0.000000 0.458597
v 0.173724 -0.175498 0.423688
v 0.173724 -0.324277 0.324277
v 0.173724 -0.423689 0.175497
v 0.173724 -0.458597 -0.000000
v 0.173724 -0.423688 -0.175498
v 0.173724 -0.324277 -0.324277
v 0.173724 -0.175498 -0.423689
v -0.173724 0.000000 -0.259293
v -0.173724 0.099227 -0.239556
v -0.173724 0.183348 -0.183348
v -0.173724 0.239556 -0.099227
v -0.173724 0.259293 0.000000
v -0.173724 0.239556 0.099227
v -0.173724 0.183348 0.183348
v -0.173724 0.099227 0.239556
v -0.173724 -0.000000 0.259293
v -0.173724 -0.099227 0.239556
v -0.173724 -0.183348 0.183348
v -0.173724 -0.239556 0.099227
v -0.173724 -0.259293 -0.000000
v -0.173724 -0.239556 -0.099227
v -0.173724 -0.183348 -0.183348
v -0.173724 -0.099227 -0.239556
v -0.134178 0.185464 -0.447749
v -0.134178 0.000000 -0.484640
v -0.134178 0.342693 -0.342692
v -0.134178 0.447749 -0.185464
v -0.134178 0.484640 0.000000
v -0.134179 0.447749 0.185464
v -0.134179 0.342692 0.342693
v -0.134179 0.185464 0.447749
v -0.134179 -0.000000 0.484640
v -0.134179 -0.185464 0.447749
v -0.134179 -0.342693 0.342692
v -0.134178 -0.447749 0.185464
v -0.134178 -0.484640 -0.000000
v -0.134178 -0.447749 -0.185464
v -0.134178 -0.342692 -0.342692
v -0.134178 -0.185464 -0.447749
v -0.173724 0.175498 -0.423688
v -0.173724 0.000000 -0.458597
v -0.173724 0.324277 -0.324277
v -0.173724 0.423689 -0.175497
v -0.173724 0.458597 0.000000
v -0.173724 0.423688 0.175498
v -0.173724 0.324277 0.324277
v -0.173724 0.175497 0.423689
v -0.173724 -0.000000 0.458597
v -0.173724 -0.175498 0.423688
v -0.173724 -0.324277 0.324277
v -0.173724 -0.423689 0.175497
v -0.173724 -0.458597 -0.000000
v -0.173724 -0.423688 -0.175498
v -0.173724 -0.324277 -0.324277
v -0.173724 -0.175498 -0.423689
vn 1.0000 -0.0000 -0.0000
vn -0.0000 -0.3827 -0.9239
vn -0.0000 -0.7071 -0.7071
vn 0.5500 0.3196 -0.7716
vn 0.5500 -0.0000 -0.8352
vn 0.5500 -0.3196 -0.7716
vn 0.5500 -0.3196 0.7716
vn 0.5500 -0.0000 0.8352
vn 0.5500 0.5905 -0.5905
vn 0.5500 -0.5905 0.5905
vn 0.5500 0.7716 -0.3196
vn 0.5500 -0.7716 0.3196
vn 0.5500 0.8352 -0.0000
vn 0.5500 -0.8352 -0.0000
vn 0.5500 0.7716 0.3196
vn 0.5500 -0.7716 -0.3196
vn 0.5500 0.5905 0.5905
vn 0.5500 -0.5905 -0.5905
vn 0.5500 0.3196 0.7716
vn -0.0000 -0.0000 1.0000
vn -0.0000 0.3827 0.9239
vn -0.0000 0.3827 -0.9239
vn -0.0000 -0.0000 -1.0000
vn -0.0000 -0.3827 0.9239
vn -0.0000 0.7071 -0.7071
vn -0.0000 -0.7071 0.7071
vn -0.0000 0.9239 -0.3827
vn -0.0000 -0.9239 0.3827
vn -0.0000 1.0000 -0.0000
vn -0.0000 -1.0000 -0.0000
vn -0.0000 0.9239 0.3827
vn -0.0000 -0.9239 -0.3827
vn -0.0000 0.7071 0.7071
vn -1.0000 -0.0000 -0.0000
vn -0.5500 0.3196 -0.7716
vn -0.5500 -0.0000 -0.8352
vn -0.5500 -0.3196 -0.7716
vn -0.5500 -0.3196 0.7716
vn -0.5500 -0.0000 0.8352
vn -0.5500 0.5905 -0.5905
vn -0.5500 -0.5905 0.5905
vn -0.5500 0.7716 -0.3196
vn -0.5500 -0.7716 0.3196
vn -0.5500 0.8352 -0.0000
vn -0.5500 -0.8352 -0.0000
vn -0.5500 0.7716 0.3196
vn -0.5500 -0.7716 -0.3196
vn -0.5500 0.5905 0.5905
vn -0.5500 -0.5905 -0.5905
vn -0.5500 0.3196 0.7716
vt 0.865750 0.480314
vt 0.629515 0.490157
vt 0.865750 0.480314
vt 0.629515 0.490157
vt 0.865750 0.480314
vt 0.629515 0.490157
vt 0.865750 0.480314
vt 0.629515 0.490157
vt 0.865750 0.480314
vt 0.629515 0.490157
vt 0.865750 0.480314
vt 0.629515 0.490157
vt 0.865750 0.480314
vt 0.629515 0.490157
vt 0.865750 0.480314
vt 0.629515 0.490157
vt 0.865750 0.480314
vt 0.629515 0.490157
vt 0.865750 0.480314
vt 0.629515 0.490157
vt 0.865750 0.480314
vt 0.629515 0.490157
vt 0.865750 0.480314
vt 0.629515 0.490157
vt 0.865750 0.480314
vt 0.629515 0.490157
vt 0.865750 0.480314
vt 0.629515 0.490157
vt 0.865750 0.480314
vt 0.629515 0.490157
vt 0.865750 0.480314
vt 0.629515 0.490157
vt 0.629515 0.490157
vt 0.629515 0.490157
vt 0.629515 0.490157
vt 0.629515 0.490157
vt 0.629515 0.490157
vt 0.629515 0.490157
vt 0.629515 0.490157
vt 0.629515 0.490157
vt 0.629515 0.490157
vt 0.629515 0.490157
vt 0.629515 0.490157
vt 0.629515 0.490157
vt 0.629515 0.490157
vt 0.629515 0.490157
vt 0.629515 0.490157
vt 0.629515 0.490157
vt 0.629515 0.490157
vt 0.629515 0.490157
vt 0.629515 0.490157
vt 0.629515 0.490157
vt 0.629515 0.490157
vt 0.629515 0.490157
vt 0.629515 0.490157
vt 0.629515 0.490157
vt 0.629515 0.490157
vt 0.629515 0.490157
vt 0.629515 0.490157
vt 0.629515 0.490157
vt 0.629515 0.490157
vt 0.629515 0.490157
vt 0.629515 0.490157
vt 0.629515 0.490157
vt 0.629515 0.490157
vt 0.629515 0.490157
vt 0.629515 0.490157
vt 0.629515 0.490157
vt 0.629515 0.490157
vt 0.629515 0.490157
vt 0.629515 0.490157
vt 0.629515 0.490157
vt 0.629515 0.490157
vt 0.629515 0.490157
vt 0.629515 0.490157
vt 0.629515 0.490157
vt 0.629515 0.490157
vt 0.629515 0.490157
vt 0.629515 0.490157
vt 0.629515 0.490157
vt 0.865750 0.480314
vt 0.629515 0.490157
vt 0.865750 0.480314
vt 0.629515 0.490157
vt 0.865750 0.480314
vt 0.629515 0.490157
vt 0.865750 0.480314
vt 0.629515 0.490157
vt 0.865750 0.480314
vt 0.629515 0.490157
vt 0.865750 0.480314
vt 0.629515 0.490157
vt 0.865750 0.480314
vt 0.629515 0.490157
vt 0.865750 0.480314
vt 0.629515 0.490157
vt 0.865750 0.480314
vt 0.629515 0.490157
vt 0.865750 0.480314
vt 0.629515 0.490157
vt 0.865750 0.480314
vt 0.629515 0.490157
vt 0.865750 0.480314
vt 0.629515 0.490157
vt 0.865750 0.480314
vt 0.629515 0.490157
vt 0.865750 0.480314
vt 0.629515 0.490157
vt 0.865750 0.480314
vt 0.629515 0.490157
vt 0.865750 0.480314
vt 0.629515 0.490157
vt 0.629515 0.490157
vt 0.629515 0.490157
vt 0.629515 0.490157
vt 0.629515 0.490157
vt 0.629515 0.490157
vt 0.629515 0.490157
vt 0.629515 0.490157
vt 0.629515 0.490157
vt 0.629515 0.490157
vt 0.629515 0.490157
vt 0.629515 0.490157
vt 0.629515 0.490157
vt 0.629515 0.490157
vt 0.629515 0.490157
vt 0.629515 0.490157
vt 0.629515 0.490157
vt 0.629515 0.490157
vt 0.629515 0.490157
vt 0.629515 0.490157
vt 0.629515 0.490157
vt 0.629515 0.490157
vt 0.629515 0.490157
vt 0.629515 0.490157
vt 0.629515 0.490157
vt 0.629515 0.490157
vt 0.629515 0.490157
vt 0.629515 0.490157
vt 0.629515 0.490157
vt 0.629515 0.490157
vt 0.629515 0.490157
vt 0.629515 0.490157
vt 0.629515 0.490157
s 1
usemtl Material.001
f 2/3/1 3/5/1 4/7/1 5/9/1 6/11/1 7/13/1 8/15/1 9/17/1 10/19/1 11/21/1 12/23/1 13/25/1 14/27/1 15/29/1 16/31/1 1/1/1
f 32/48/2 31/47/3 47/63/3 48/64/2
f 49/65/4 50/66/5 18/34/5 17/33/4
f 50/66/5 64/80/6 32/48/6 18/34/5
f 58/74/7 57/73/8 25/41/8 26/42/7
f 51/67/9 49/65/4 17/33/4 19/35/9
f 59/75/10 58/74/7 26/42/7 27/43/10
f 52/68/11 51/67/9 19/35/9 20/36/11
f 60/76/12 59/75/10 27/43/10 28/44/12
f 53/69/13 52/68/11 20/36/11 21/37/13
f 61/77/14 60/76/12 28/44/12 29/45/14
f 54/70/15 53/69/13 21/37/13 22/38/15
f 62/78/16 61/77/14 29/45/14 30/46/16
f 55/71/17 54/70/15 22/38/15 23/39/17
f 63/79/18 62/78/16 30/46/16 31/47/18
f 56/72/19 55/71/17 23/39/17 24/40/19
f 64/80/6 63/79/18 31/47/18 32/48/6
f 57/73/8 56/72/19 24/40/19 25/41/8
f 25/41/20 24/40/21 40/56/21 41/57/20
f 17/33/22 18/34/23 34/50/23 33/49/22
f 18/34/23 32/48/2 48/64/2 34/50/23
f 26/42/24 25/41/20 41/57/20 42/58/24
f 19/35/25 17/33/22 33/49/22 35/51/25
f 27/43/26 26/42/24 42/58/24 43/59/26
f 20/36/27 19/35/25 35/51/25 36/52/27
f 28/44/28 27/43/26 43/59/26 44/60/28
f 21/37/29 20/36/27 36/52/27 37/53/29
f 29/45/30 28/44/28 44/60/28 45/61/30
f 22/38/31 21/37/29 37/53/29 38/54/31
f 30/46/32 29/45/30 45/61/30 46/62/32
f 23/39/33 22/38/31 38/54/31 39/55/33
f 31/47/3 30/46/32 46/62/32 47/63/3
f 24/40/21 23/39/33 39/55/33 40/56/21
f 2/4/1 1/2/1 50/66/1 49/65/1
f 3/6/1 2/4/1 49/65/1 51/67/1
f 4/8/1 3/6/1 51/67/1 52/68/1
f 5/10/1 4/8/1 52/68/1 53/69/1
f 6/12/1 5/10/1 53/69/1 54/70/1
f 7/14/1 6/12/1 54/70/1 55/71/1
f 8/16/1 7/14/1 55/71/1 56/72/1
f 9/18/1 8/16/1 56/72/1 57/73/1
f 10/20/1 9/18/1 57/73/1 58/74/1
f 11/22/1 10/20/1 58/74/1 59/75/1
f 12/24/1 11/22/1 59/75/1 60/76/1
f 13/26/1 12/24/1 60/76/1 61/77/1
f 14/28/1 13/26/1 61/77/1 62/78/1
f 15/30/1 14/28/1 62/78/1 63/79/1
f 16/32/1 15/30/1 63/79/1 64/80/1
f 1/2/1 16/32/1 64/80/1 50/66/1
f 66/83/34 65/81/34 80/111/34 79/109/34 78/107/34 77/105/34 76/103/34 75/101/34 74/99/34 73/97/34 72/95/34 71/93/34 70/91/34 69/89/34 68/87/34 67/85/34
f 96/128/2 48/64/2 47/63/3 95/127/3
f 97/129/35 81/113/35 82/114/36 98/130/36
f 98/130/36 82/114/36 96/128/37 112/144/37
f 106/138/38 90/122/38 89/121/39 105/137/39
f 99/131/40 83/115/40 81/113/35 97/129/35
f 107/139/41 91/123/41 90/122/38 106/138/38
f 100/132/42 84/116/42 83/115/40 99/131/40
f 108/140/43 92/124/43 91/123/41 107/139/41
f 101/133/44 85/117/44 84/116/42 100/132/42
f 109/141/45 93/125/45 92/124/43 108/140/43
f 102/134/46 86/118/46 85/117/44 101/133/44
f 110/142/47 94/126/47 93/125/45 109/141/45
f 103/135/48 87/119/48 86/118/46 102/134/46
f 111/143/49 95/127/49 94/126/47 110/142/47
f 104/136/50 88/120/50 87/119/48 103/135/48
f 112/144/37 96/128/37 95/127/49 111/143/49
f 105/137/39 89/121/39 88/120/50 104/136/50
f 89/121/20 41/57/20 40/56/21 88/120/21
f 81/113/22 33/49/22 34/50/23 82/114/23
f 82/114/23 34/50/23 48/64/2 96/128/2
f 90/122/24 42/58/24 41/57/20 89/121/20
f 83/115/25 35/51/25 33/49/22 81/113/22
f 91/123/26 43/59/26 42/58/24 90/122/24
f 84/116/27 36/52/27 35/51/25 83/115/25
f 92/124/28 44/60/28 43/59/26 91/123/26
f 85/117/29 37/53/29 36/52/27 84/116/27
f 93/125/30 45/61/30 44/60/28 92/124/28
f 86/118/31 38/54/31 37/53/29 85/117/29
f 94/126/32 46/62/32 45/61/30 93/125/30
f 87/119/33 39/55/33 38/54/31 86/118/31
f 95/127/3 47/63/3 46/62/32 94/126/32
f 88/120/21 40/56/21 39/55/33 87/119/33
f 66/84/34 97/129/34 98/130/34 65/82/34
f 67/86/34 99/131/34 97/129/34 66/84/34
f 68/88/34 100/132/34 99/131/34 67/86/34
f 69/90/34 101/133/34 100/132/34 68/88/34
f 70/92/34 102/134/34 101/133/34 69/90/34
f 71/94/34 103/135/34 102/134/34 70/92/34
f 72/96/34 104/136/34 103/135/34 71/94/34
f 73/98/34 105/137/34 104/136/34 72/96/34
f 74/100/34 106/138/34 105/137/34 73/98/34
f 75/102/34 107/139/34 106/138/34 74/100/34
f 76/104/34 108/140/34 107/139/34 75/102/34
f 77/106/34 109/141/34 108/140/34 76/104/34
f 78/108/34 110/142/34 109/141/34 77/106/34
f 79/110/34 111/143/34 110/142/34 78/108/34
f 80/112/34 112/144/34 111/143/34 79/110/34
f 65/82/34 98/130/34 112/144/34 80/112/34
